<svg id="Layer_1" xmlns="http://www.w3.org/2000/svg" viewBox="0 0 200 150"><style>.st0{fill:#5fb8ff}</style><g id="cloudy"><path class="st0" d="M143.8 128.1H37c-13-.1-23.7-10.5-23.8-23.1 0-11.6 8.6-21.2 19.8-22.8v-.5c0-22.9 18.6-41.5 41.5-41.5 11.4 0 22.3 4.6 30.2 12.7 2.9-.7 5.9-1.1 8.9-1.1 2.2 0 4.4.2 6.5.7 8.7 1.7 16.2 6.7 21.1 14 4.3 6.4 6.2 14 5.4 21.6 9.7 1.4 17.3 9.8 17.3 19.9 0 11.1-9 20.1-20.1 20.1zm-106.8-6h106.8c7.8 0 14.1-6.3 14.1-14.1s-6.3-14.1-14.1-14.1h-4.3l.7-3.6c1.4-7.2 0-14.4-4-20.5-4-6-10.2-10.1-17.3-11.5-1.7-.4-3.5-.5-5.3-.5-3.1 0-6.1.5-9 1.4l-1.9.6-1.3-1.5c-6.8-7.7-16.6-12.1-26.9-12.1C54.9 46.2 39 62.1 39 81.7c0 1 .1 2 .2 3l.3 3.3h-3.3c-9.4 0-17 7.6-17 17 .1 9.2 8.2 17 17.8 17.1z"/><path class="st0" d="M171.4 56.9h-.3c1.6-8.2-3.7-16.1-11.9-17.7-1-.2-1.9-.3-2.9-.3-1.7 0-3.3.3-4.9.8-3.7-4.2-9-6.6-14.6-6.6-10.6 0-19.2 8.6-19.2 19.2 0 .6 0 1.1.1 1.7-1.4 0-2.8.3-4.1.9h.1c12.4 0 23.5 7.6 28.1 19.1h29.6c4.7 0 8.5-3.8 8.5-8.5s-3.8-8.6-8.5-8.6z" opacity=".5"/></g></svg>