<svg id="Layer_1" xmlns="http://www.w3.org/2000/svg" viewBox="0 0 200 150"><style>.st0{fill:#5fb8ff}</style><g id="Fog"><path class="st0" d="M74.1 114.9h85.7c1.1 0 2 .9 2 2s-.9 2-2 2H74.1c-1.1 0-2-.9-2-2s.8-2 2-2zM40.4 37h94.8c1.1 0 2 .9 2 2s-.9 2-2 2H40.4c-1.1 0-2-.9-2-2s.9-2 2-2zm23.9 13.6h96.9c1.1 0 2 .9 2 2s-.9 2-2 2H64.3c-1.1 0-2-.9-2-2s.9-2 2-2zm-8.7 13.9h96.9c1.1 0 2 .9 2 2s-.9 2-2 2H55.6c-1.1 0-2-.9-2-2s.9-2 2-2zm2.6 12.8h96.9c1.1 0 2 .9 2 2s-.9 2-2 2H58.2c-1.1 0-2-.9-2-2s.9-2 2-2zm15.9 11.9h54.5c1.1 0 2 .9 2 2s-.9 2-2 2H74.1c-1.1 0-2-.9-2-2s.8-2 2-2zm68.5 0h28.3c1.1 0 2 .9 2 2s-.9 2-2 2h-28.3c-1.1 0-2-.9-2-2s.8-2 2-2zm-93.5 12.6H146c1.1 0 2 .9 2 2s-.9 2-2 2H49.1c-1.1 0-2-.9-2-2s.9-2 2-2z"/><circle class="st0" cx="56.2" cy="52.7" r="2"/><circle class="st0" cx="159.8" cy="66.5" r="2"/><circle class="st0" cx="162.4" cy="79.4" r="2"/><circle class="st0" cx="135.9" cy="91.5" r="2"/><circle class="st0" cx="65.6" cy="116.9" r="2"/></g></svg>