<svg id="Layer_1" xmlns="http://www.w3.org/2000/svg" viewBox="0 0 200 150"><style>.st0{fill:#5fb8ff}</style><g id="partly-cloudy"><path class="st0" d="M140.7 101.2l-.9-.5c-1.9-1.1-4.1-1.7-6.3-1.7h-4.1l.7-3.6c2.4-12.2-4.6-24.4-16.3-28.5l-3-1L112 63c5.1-12.5 18.1-19.7 30.9-17.2 14.7 2.9 24.6 18.1 21.7 33.3-2.3 11.4-11.2 20.1-22.7 22l-1.2.1zm-4.3-8c1.9.3 3.7.9 5.4 1.7 8.5-1.8 15.1-8.4 16.8-17 2.3-12-5.4-24-16.9-26.3-8.8-1.8-18.2 2.9-22.8 10.9 11.5 5.6 18.6 17.9 17.5 30.7zM171 59.3l1.7 4.9 14.4-5-1.7-4.9-14.4 5zm-60.7-11.8l-3.4 3.9-11.5-10 3.4-3.9 11.5 10zm56.2 48.8l-3.4 3.9 11.5 10 3.4-3.9-11.5-10zm-20.2-58.5l-5.1-1 2.9-15 5.1 1-2.9 15z" id="sun"/><path class="st0" d="M133.5 130.7h-99c-12.1-.1-22.3-10-22.3-21.6 0-10.9 8.1-19.9 18.5-21.4v-.3c0-21.3 17.4-38.6 38.7-38.6 10.6 0 20.7 4.3 28 11.8 2.8-.7 5.5-1 8.2-1 2.4 0 4.3.2 6.1.6 15.6 3.1 26.1 17.5 24.8 33.1 9 1.4 15.9 9.2 15.9 18.7-.1 10.3-8.5 18.7-18.9 18.7zm-99-6h99c7.1 0 12.8-5.7 12.8-12.8 0-7.1-5.7-12.9-12.8-12.9h-4.2l.7-3.6c2.7-13.5-6.1-26.7-19.6-29.4-1.4-.3-2.9-.4-4.8-.4-2.7 0-5.5.4-8.3 1.3l-1.9.6-1.3-1.5c-6.2-7.1-15.2-11.2-24.7-11.2-18 0-32.7 14.6-32.7 32.6 0 1 0 2 .1 2.8l.3 3.3h-3.3c-8.6 0-15.6 7-15.6 15.6 0 8.4 7.5 15.5 16.3 15.6z"/></g></svg>