<svg xmlns="http://www.w3.org/2000/svg" viewBox="0 0 200 150"><path d="M147.7 102.2c-.6 3.4-3.8 5.6-7.2 5s-5.6-3.8-5-7.2c.6-3.4 8.4-12 8.4-12s4.4 10.9 3.8 14.2zm-39.1 0c-.6 3.4-3.8 5.6-7.2 5-3.4-.6-5.6-3.8-5-7.2.6-3.4 8.4-12 8.4-12s4.3 10.9 3.8 14.2zm-36.2 0c-.6 3.4-3.8 5.6-7.2 5-3.4-.6-5.6-3.8-5-7.2.6-3.4 8.4-12 8.4-12s4.4 10.9 3.8 14.2zm52.2 18.2c-.6 3.4-3.8 5.6-7.2 5-3.4-.6-5.6-3.8-5-7.2.6-3.4 8.4-12 8.4-12s4.5 10.8 3.8 14.2zm-37.1 0c-.6 3.4-3.8 5.6-7.2 5-3.4-.6-5.6-3.8-5-7.2.6-3.4 8.4-12 8.4-12s4.5 10.8 3.8 14.2zm54 18.9c-.6 3.4-3.8 5.6-7.2 5s-5.6-3.8-5-7.2 8.4-12 8.4-12 4.4 10.9 3.8 14.2zm-39.1 0c-.6 3.4-3.8 5.6-7.2 5s-5.6-3.8-5-7.2 8.4-12 8.4-12 4.4 10.9 3.8 14.2zm-36.2 0c-.6 3.4-3.8 5.6-7.2 5s-5.6-3.8-5-7.2 8.4-12 8.4-12 4.5 10.9 3.8 14.2zm86.9-54.5H59.8c-11.4 0-21.1-9.3-21.1-20.4 0-10.3 7.6-18.8 17.4-20.3V44c0-20.2 16.4-36.6 36.6-36.6 9.9 0 19.4 4 26.4 11.1 2.4-.6 4.9-1 7.7-1 1.7 0 3.5.2 5.6.5 7.8 1.5 14.4 5.9 18.7 12.5 3.7 5.6 5.4 12.1 4.8 18.7 8.5 1.4 15 8.8 15 17.7.1 9.9-7.9 17.9-17.8 17.9zM59.2 49.9c-8 0-14.5 6.5-14.5 14.5 0 7.8 6.9 14.4 15.1 14.4h93.3c6.6 0 11.9-5.3 11.9-11.9S159.7 55 153.1 55H149l.7-3.6c1.2-6.1 0-12.4-3.5-17.6-3.5-5.2-8.7-8.7-14.8-9.9-1.7-.3-3.2-.4-4.5-.4-2.8 0-5.4.4-7.6 1.2l-1.9.7-1.4-1.5c-5.9-6.7-14.4-10.5-23.3-10.5-16.9 0-30.6 13.7-30.6 30.6 0 .9 0 1.8.1 2.6l.3 3.3h-3.3z" fill="#5fb8ff"/></svg>