<svg id="Layer_1" xmlns="http://www.w3.org/2000/svg" viewBox="0 0 200 150"><style>.st0{fill:#5fb8ff}</style><g id="Sleet"><path class="st0" d="M151.9 90.8H55.1c-5.8.1-11.4-2.3-15.6-6.4-4-4-6.3-9.2-6.3-14.7 0-10.6 7.8-19.4 18-20.9v-.2c0-20.8 17-37.7 37.8-37.7 10.3 0 20.2 4.2 27.3 11.5 2.6-.7 5.3-1 8-1 1.8 0 3.5.2 5.8.5h.1c15.2 3.1 25.4 17.1 24.2 32.2 4.2.6 7.9 2.5 10.8 5.6 3.4 3.6 5.2 8.2 5.1 13.1-.2 10-8.5 18-18.4 18zm-96.9-6h96.5c3.4.1 6.5-1.1 8.9-3.4 2.4-2.3 3.8-5.4 3.9-8.7.2-6.9-5.3-12.6-12.1-12.7h-4.9l.7-3.6c2.6-13.1-6-25.9-19-28.6-1.9-.3-3.3-.5-4.8-.5-2.7 0-5.4.4-8 1.3l-1.9.6-1.3-1.5a32.3 32.3 0 0 0-24.2-10.9C71.3 16.8 57 31 57 48.5c0 1 0 1.9.1 2.7l.3 3.3h-3.3c-8.3 0-15.1 6.8-15.1 15.1 0 3.9 1.6 7.6 4.5 10.5 3 3 7 4.6 11.1 4.6.3.1.3.1.4.1z"/><path transform="rotate(-68.531 142.644 107.422)" class="st0" d="M132.2 106.4h20.9v2h-20.9z"/><path transform="rotate(-68.531 127.645 107.421)" class="st0" d="M117.2 106.4h20.9v2h-20.9z"/><path transform="rotate(-68.531 112.646 107.42)" class="st0" d="M102.2 106.4h20.9v2h-20.9z"/><path transform="rotate(-68.531 97.647 107.419)" class="st0" d="M87.2 106.4h20.9v2H87.2z"/><path transform="rotate(-68.531 82.645 107.434)" class="st0" d="M72.2 106.4h20.9v2H72.2z"/><path transform="rotate(-68.531 67.645 107.433)" class="st0" d="M57.2 106.4h20.9v2H57.2z"/><path transform="rotate(-68.531 52.646 107.431)" class="st0" d="M42.2 106.4h20.9v2H42.2z"/><path transform="rotate(-68.531 130.246 121.986)" class="st0" d="M119.8 121h20.9v2h-20.9z"/><path transform="rotate(-68.531 115.247 121.984)" class="st0" d="M104.8 121h20.9v2h-20.9z"/><path transform="rotate(-68.531 100.238 121.99)" class="st0" d="M89.8 121h20.9v2H89.8z"/><path transform="rotate(-68.531 85.24 121.989)" class="st0" d="M74.8 121h20.9v2H74.8z"/><path transform="rotate(-68.531 70.24 121.988)" class="st0" d="M59.8 121h20.9v2H59.8z"/><path transform="rotate(-68.531 55.24 121.987)" class="st0" d="M44.8 121h20.9v2H44.8z"/></g></svg>