<svg id="Layer_1" xmlns="http://www.w3.org/2000/svg" viewBox="0 0 200 150"><style>.st0{fill:#5fb8ff}</style><g id="snow"><path class="st0" d="M155.9 90h-101c-12.3 0-22.6-10.1-22.6-22 0-11 8.2-20.2 18.8-21.7V46c0-21.7 17.6-39.4 39.3-39.5 10.7 0 21 4.4 28.4 12 2.8-.7 5.6-1.1 8.5-1.1 2.1 0 4.2.2 6.3.7 8.2 1.6 15.4 6.4 20 13.4 4 6.1 5.8 13.2 5.2 20.3 9.2 1.4 16.4 9.4 16.4 19-.1 10.6-8.7 19.2-19.3 19.2zM54.2 52.1c-8.8 0-15.9 7.1-15.9 15.9 0 8.7 7.6 16 16.6 16h101c7.3 0 13.2-5.9 13.2-13.2 0-7.4-5.8-13.2-13.2-13.2h-4.3l.7-3.6c1.3-6.7 0-13.5-3.8-19.2-3.8-5.7-9.6-9.5-16.3-10.9-1.6-.4-3.3-.5-5-.5-2.9 0-5.7.4-8.5 1.4l-1.9.6-1.3-1.5c-6.4-7.2-15.6-11.4-25.3-11.4C72 12.6 57.1 27.6 57.1 46v1.5c0 .5.1 1.1.1 1.6v3h-3z"/><path class="st0" d="M68.1 103.1l-1.1-2-4.5 2.6v-5.2h-2.3v5.2l-4.5-2.6-1.2 2 4.5 2.6-4.5 2.6 1.2 2 4.5-2.6v5.2h2.3v-5.2l4.5 2.6 1.1-2-4.5-2.6zm28.3 0l-1.2-2-4.5 2.6v-5.2h-2.3v5.2l-4.5-2.6-1.1 2 4.5 2.6-4.5 2.6 1.1 2 4.5-2.6v5.2h2.3v-5.2l4.5 2.6 1.2-2-4.5-2.6zm28.2 0l-1.1-2-4.5 2.6v-5.2h-2.3v5.2l-4.6-2.6-1.1 2 4.5 2.6-4.5 2.6 1.1 2 4.6-2.6v5.2h2.3v-5.2l4.5 2.6 1.1-2-4.5-2.6zm28.5 0l-1.1-2-4.5 2.6v-5.2h-2.3v5.2l-4.6-2.6-1.1 2 4.5 2.6-4.5 2.6 1.1 2 4.6-2.6v5.2h2.3v-5.2l4.5 2.6 1.1-2-4.5-2.6zm-71 21.1l-1.1-2-4.5 2.6v-5.2h-2.3v5.2l-4.5-2.6-1.2 2 4.5 2.6-4.5 2.6 1.2 2 4.5-2.6v5.2h2.3v-5.2l4.5 2.6 1.1-2-4.5-2.6zm28.3 0l-1.2-2-4.5 2.6v-5.2h-2.3v5.2l-4.5-2.6-1.1 2 4.5 2.6-4.5 2.6 1.1 2 4.5-2.6v5.2h2.3v-5.2l4.5 2.6 1.2-2-4.5-2.6zm28.5 0l-1.2-2-4.5 2.6v-5.2h-2.3v5.2l-4.5-2.6-1.1 2 4.5 2.6-4.5 2.6 1.1 2 4.5-2.6v5.2h2.3v-5.2l4.5 2.6 1.2-2-4.5-2.6z" id="snowflakes"/></g></svg>