<svg xmlns="http://www.w3.org/2000/svg" viewBox="0 0 200 150"><path d="M100.7 108.2c-18.8 0-34.1-15.3-34.1-34.1 0-19.1 15.6-35.2 34.1-35.2s34.1 16.1 34.1 35.2c0 18.8-15.3 34.1-34.1 34.1zm0-63.3c-15.2 0-28.1 13.4-28.1 29.2 0 15.5 12.6 28.1 28.1 28.1 15.5 0 28.1-12.6 28.1-28.1 0-15.8-12.9-29.2-28.1-29.2zM57.6 95l3.3 5.6-16.7 9.6-3.3-5.6L57.6 95zM139 48l3.3 5.6L159 44l-3.3-5.6L139 48zm-78.1 0l-3.3 5.6L40.9 44l3.3-5.6L60.9 48zm81.3 47l-3.2 5.7 16.7 9.6 3.3-5.6-16.8-9.7zm-39-67.6h-6.5V8.1h6.5v19.3zm0 93.9h-6.5v19.3h6.5v-19.3z" fill="#5fb8ff"/></svg>