<svg xmlns="http://www.w3.org/2000/svg" viewBox="0 0 216.7 150"><path d="M148.8 108.1c-.4 2-2.3 3.3-4.2 2.9-2-.4-3.3-2.3-2.9-4.2.4-2 5-7.1 5-7.1s2.5 6.5 2.1 8.4zm-68.5.7c-.3 1.9-2.2 3.2-4.1 2.9-1.9-.3-3.2-2.2-2.9-4.1.3-1.9 4.8-6.9 4.8-6.9s2.5 6.2 2.2 8.1zm75.6 15.5c-.4 2-2.3 3.3-4.2 2.9-2-.4-3.3-2.3-2.9-4.2.4-2 5-7.1 5-7.1s2.5 6.4 2.1 8.4zm-67.8-.9c-.3 1.9-2.1 3.3-4 3s-3.3-2.1-3-4v-.3c.3-1.9 4.8-6.9 4.8-6.9s2.5 6.3 2.2 8.2zm56.1 11.4c-.4 2-2.3 3.3-4.2 2.9-2-.4-3.3-2.3-2.9-4.2.4-2 5-7.1 5-7.1s2.4 6.4 2.1 8.4zm-68 1c-.3 1.9-2.2 3.2-4.1 2.9s-3.2-2.2-2.9-4.1c.3-1.9 4.8-6.9 4.8-6.9s2.5 6.2 2.2 8.1zm90.2-41.2H69c-11.8 0-21.9-9.7-22-21.3 0-10.7 7.9-19.6 18.2-21.1V52c0-20.9 17.1-38 38.1-38.1 10.4 0 20.4 4.2 27.6 11.6 2.7-.7 5.4-1 8-1 2.4 0 4.3.2 6 .6 7.9 1.6 14.8 6.2 19.4 13 3.9 5.8 5.6 12.7 5 19.6 8.9 1.3 15.7 9 15.7 18.3 0 10.3-8.3 18.6-18.6 18.6zM68.3 58C59.9 58 53 64.9 53 73.3c.1 8.3 7.4 15.3 16 15.3h97.4c6.9 0 12.6-5.7 12.6-12.6 0-6.9-5.7-12.6-12.6-12.6h-4.2l.7-3.6c1.3-6.4 0-13-3.6-18.4-3.6-5.5-9.2-9.2-15.6-10.5-1.4-.3-2.9-.4-4.8-.4-2.7 0-5.4.4-8.1 1.3l-1.9.6-1.3-1.5c-6.2-7-15-11-24.4-11-17.6.1-32 14.5-32 32.1v1.4c0 .5.1 1.1.1 1.6v3h-3zm31.2 41.9l25.1-.1-7.2 19.1 12.3.1-19.9 27.9 2.5-18-14 .6z" fill="#5fb8ff"/></svg>