<svg xmlns="http://www.w3.org/2000/svg" viewBox="0 0 50 50"><path d="M29.47 31.32l-1.64-2.84-6.38 3.69V24.8h-3.28v7.37l-6.39-3.69-1.64 2.84 6.39 3.69-6.39 3.69 1.64 2.83 6.39-3.68v7.37h3.28v-7.37l6.38 3.68 1.64-2.83-6.38-3.69 6.38-3.69zm15.19-13.66l-1.25-2.16-4.86 2.8v-5.61h-2.49v5.61l-4.86-2.8-1.24 2.16 4.85 2.8-4.85 2.8 1.24 2.16 4.86-2.8v5.61h2.49v-5.61l4.86 2.8 1.25-2.16-4.86-2.8 4.86-2.8zm-20.85-7.07l-.99-1.71-3.86 2.23V6.66h-1.98v4.45l-3.85-2.23-.99 1.71L16 12.82l-3.86 2.22.99 1.72 3.85-2.23v4.45h1.98v-4.45l3.86 2.23.99-1.72-3.86-2.22 3.86-2.23z" fill="#fff"/></svg>