<svg xmlns="http://www.w3.org/2000/svg" viewBox="0 0 200 150"><path d="M37 125.11h106.83a17.09 17.09 0 1 0 0-34.18h-.58a30.2 30.2 0 0 0-29.6-36.11 31.53 31.53 0 0 0-9.89 1.55 38.89 38.89 0 0 0-29.17-13.12 38.48 38.48 0 0 0-38.47 38.47c0 1.12.06 2.23.15 3.32a20 20 0 0 0-20 20c0 11.06 9.69 20 20.76 20" fill="none" stroke="#fff" stroke-miterlimit="10" stroke-width="6"/><path d="M171.37 56.93h-.29a15.08 15.08 0 0 0-14.79-18 15.74 15.74 0 0 0-4.94.78 19.42 19.42 0 0 0-14.56-6.58 19.22 19.22 0 0 0-19.22 19.22c0 .56 0 1.11.08 1.66a10 10 0 0 0-4.07.87h.07A30.19 30.19 0 0 1 141.74 74h29.63a8.53 8.53 0 1 0 0-17.07z" fill="#fff" opacity=".5"/></svg>