<svg xmlns="http://www.w3.org/2000/svg" viewBox="0 0 200 150"><defs><style>.cls-1{fill:#fff}</style></defs><g id="Fog"><rect class="cls-1" x="72.05" y="114.86" width="89.74" height="4.03" rx="2.01" ry="2.01"/><rect class="cls-1" x="38.36" y="36.96" width="98.83" height="4.03" rx="2.01" ry="2.01"/><rect class="cls-1" x="62.26" y="50.64" width="100.94" height="4.03" rx="2.01" ry="2.01"/><rect class="cls-1" x="53.63" y="64.51" width="100.94" height="4.03" rx="2.01" ry="2.01"/><rect class="cls-1" x="56.22" y="77.35" width="100.94" height="4.03" rx="2.01" ry="2.01"/><rect class="cls-1" x="72.05" y="89.2" width="58.47" height="4.03" rx="2.01" ry="2.01"/><rect class="cls-1" x="140.55" y="89.2" width="32.3" height="4.03" rx="2.01" ry="2.01"/><rect class="cls-1" x="47.14" y="101.79" width="100.94" height="4.03" rx="2.01" ry="2.01"/><circle class="cls-1" cx="56.22" cy="52.66" r="2.01"/><circle class="cls-1" cx="159.78" cy="66.52" r="2.01"/><circle class="cls-1" cx="162.45" cy="79.36" r="2.01"/><circle class="cls-1" cx="135.95" cy="91.53" r="2.01"/><circle class="cls-1" cx="65.62" cy="116.87" r="2.01"/></g></svg>