<svg xmlns="http://www.w3.org/2000/svg" viewBox="0 0 200 150"><path d="M142.18 48.71c-11.63-2.25-23.06 4.73-27.53 15.39A28 28 0 0 1 132.93 96h.54a15.74 15.74 0 0 1 7.83 2.08 24.64 24.64 0 0 0 20.21-19.63c2.59-13.37-5.97-27.15-19.33-29.74z" stroke="#e5d077" fill="none" stroke-miterlimit="10" stroke-width="6"/><path d="M171 59.27l1.68 4.88 14.43-5-1.68-4.88zM110.33 47.5l-3.38 3.9-11.53-10 3.38-3.9zm56.16 48.77l-3.38 3.9 11.53 10 3.38-3.9zm-20.16-58.46l-5.07-1 2.91-15 5.07 1z" fill="#efdb8b"/><path d="M34.48 127.66h99a15.83 15.83 0 1 0 0-31.67h-.54a28 28 0 0 0-27.44-33.43A29.21 29.21 0 0 0 96.34 64a36 36 0 0 0-27-12.2 35.65 35.65 0 0 0-35.68 35.65c0 1 .05 2.06.14 3.08a18.56 18.56 0 0 0-18.56 18.56c0 10.25 9 18.56 19.23 18.56" stroke="#fff" fill="none" stroke-miterlimit="10" stroke-width="6"/></svg>