<svg xmlns="http://www.w3.org/2000/svg" viewBox="0 0 200 150"><path d="M147.7 102.2c-.6 3.4-3.8 5.6-7.2 5-3.4-.6-5.6-3.8-5-7.2.6-3.4 8.4-12 8.4-12s4.4 10.9 3.8 14.2zm-39.1 0c-.6 3.4-3.8 5.6-7.2 5-3.4-.6-5.6-3.8-5-7.2.6-3.4 8.4-12 8.4-12s4.3 10.9 3.8 14.2zm-36.2 0c-.6 3.4-3.8 5.6-7.2 5-3.4-.6-5.6-3.8-5-7.2.6-3.4 8.4-12 8.4-12s4.4 10.9 3.8 14.2zm52.2 18.2c-.6 3.4-3.8 5.6-7.2 5-3.4-.6-5.6-3.8-5-7.2.6-3.4 8.4-12 8.4-12s4.5 10.8 3.8 14.2zm-37.1 0c-.6 3.4-3.8 5.6-7.2 5-3.4-.6-5.6-3.8-5-7.2.6-3.4 8.4-12 8.4-12s4.5 10.8 3.8 14.2zm54 18.9c-.6 3.4-3.8 5.6-7.2 5-3.4-.6-5.6-3.8-5-7.2.6-3.4 8.4-12 8.4-12s4.4 10.9 3.8 14.2zm-39.1 0c-.6 3.4-3.8 5.6-7.2 5s-5.6-3.8-5-7.2c.6-3.4 8.4-12 8.4-12s4.4 10.9 3.8 14.2zm-36.2 0c-.6 3.4-3.8 5.6-7.2 5s-5.6-3.8-5-7.2c.6-3.4 8.4-12 8.4-12s4.5 10.9 3.8 14.2z" fill="#4097db"/><path d="M59.8 81.8h93.3c8.2 0 14.9-6.7 14.9-14.9S161.3 52 153.1 52h-.5c2.8-14.3-6.4-28.2-20.7-31-1.7-.3-3.4-.5-5.1-.5-2.9 0-5.9.4-8.6 1.4-6.5-7.3-15.7-11.5-25.5-11.5-18.6 0-33.6 15-33.6 33.6 0 1 0 1.9.1 2.9-9.7 0-17.5 7.8-17.5 17.5 0 9.6 8.5 17.4 18.1 17.4" fill="none" stroke="#fff" stroke-width="6" stroke-miterlimit="10"/></svg>