<svg xmlns="http://www.w3.org/2000/svg" viewBox="0 0 200 150"><defs><style>.cls-2{fill:#595f72}</style></defs><g id="Sleet"><path id="Cloud" d="M55 87.85h96.51a15.44 15.44 0 1 0 0-30.87L151 57a27.28 27.28 0 0 0-26.74-32.61 28.48 28.48 0 0 0-8.94 1.4A35.13 35.13 0 0 0 88.95 13.9a34.75 34.75 0 0 0-34.76 34.76c0 1 .05 2 .14 3a18.1 18.1 0 0 0-18.09 18.1c0 10 8.75 18.1 18.75 18.1" fill="none" stroke="#fff" stroke-miterlimit="10" stroke-width="6"/><path class="cls-2" transform="rotate(-68.53 142.658 107.417)" d="M132.2 106.41h20.93v2.02H132.2z"/><path class="cls-2" transform="rotate(-68.53 127.657 107.417)" d="M117.2 106.41h20.93v2.02H117.2z"/><path class="cls-2" transform="rotate(-68.53 112.657 107.417)" d="M102.2 106.41h20.93v2.02H102.2z"/><path class="cls-2" transform="rotate(-68.53 97.656 107.416)" d="M87.2 106.41h20.93v2.02H87.2z"/><path class="cls-2" transform="rotate(-68.53 82.668 107.414)" d="M72.2 106.41h20.93v2.02H72.2z"/><path class="cls-2" transform="rotate(-68.53 67.667 107.413)" d="M57.2 106.41h20.93v2.02H57.2z"/><path class="cls-2" transform="rotate(-68.53 52.666 107.413)" d="M42.2 106.41h20.93v2.02H42.2z"/><path class="cls-2" transform="rotate(-68.53 130.303 121.942)" d="M119.84 120.94h20.93v2.02h-20.93z"/><path class="cls-2" transform="rotate(-68.53 115.302 121.941)" d="M104.84 120.94h20.93v2.02h-20.93z"/><path class="cls-2" transform="rotate(-68.53 100.308 121.946)" d="M89.84 120.94h20.93v2.02H89.84z"/><path class="cls-2" transform="rotate(-68.53 85.308 121.946)" d="M74.84 120.94h20.93v2.02H74.84z"/><path class="cls-2" transform="rotate(-68.53 70.307 121.945)" d="M59.84 120.94h20.93v2.02H59.84z"/><path class="cls-2" transform="rotate(-68.53 55.306 121.945)" d="M44.84 120.94h20.93v2.02H44.84z"/></g></svg>