<svg xmlns="http://www.w3.org/2000/svg" viewBox="0 0 200 150"><path d="M54.92 87h101a16.16 16.16 0 1 0 0-32.32h-.55a28.55 28.55 0 0 0-28-34.14 29.81 29.81 0 0 0-9.37 1.55A36.78 36.78 0 0 0 90.47 9.64 36.38 36.38 0 0 0 54.09 46c0 1.06.06 2.11.14 3.14A18.94 18.94 0 0 0 35.3 68.11C35.3 78.57 44.46 87 54.92 87" fill="none" stroke="#fff" stroke-miterlimit="10" stroke-width="6"/><path d="M68.14 103.08l-1.16-2-4.5 2.6v-5.2h-2.32v5.2l-4.5-2.6-1.16 2 4.51 2.6-4.51 2.6 1.16 2.01 4.5-2.6v5.2h2.32v-5.2l4.5 2.6 1.16-2.01-4.51-2.6 4.51-2.6zm28.24 0l-1.16-2-4.5 2.6v-5.2h-2.31v5.2l-4.51-2.6-1.15 2 4.5 2.6-4.5 2.6 1.15 2.01 4.51-2.6v5.2h2.31v-5.2l4.5 2.6 1.16-2.01-4.5-2.6 4.5-2.6zm28.24 0l-1.15-2-4.51 2.6v-5.2h-2.31v5.2l-4.51-2.6-1.15 2 4.5 2.6-4.5 2.6 1.15 2.01 4.51-2.6v5.2h2.31v-5.2l4.51 2.6 1.15-2.01-4.5-2.6 4.5-2.6zm28.51 0l-1.16-2-4.5 2.6v-5.2h-2.31v5.2l-4.51-2.6-1.16 2 4.51 2.6-4.51 2.6 1.16 2.01 4.51-2.6v5.2h2.31v-5.2l4.5 2.6 1.16-2.01-4.51-2.6 4.51-2.6zm-70.99 21.09l-1.15-2-4.51 2.6v-5.2h-2.31v5.2l-4.51-2.6-1.15 2 4.5 2.61-4.5 2.6 1.15 2 4.51-2.6v5.2h2.31v-5.2l4.51 2.6 1.15-2-4.5-2.6 4.5-2.61zm28.25 0l-1.16-2-4.51 2.6v-5.2h-2.31v5.2l-4.5-2.6-1.16 2 4.5 2.61-4.5 2.6 1.16 2 4.5-2.6v5.2h2.31v-5.2l4.51 2.6 1.16-2-4.51-2.6 4.51-2.61zm28.5 0l-1.16-2-4.5 2.6v-5.2h-2.31v5.2l-4.51-2.6-1.15 2 4.5 2.61-4.5 2.6 1.15 2 4.51-2.6v5.2h2.31v-5.2l4.5 2.6 1.16-2-4.5-2.6 4.5-2.61z" fill="#fff"/></svg>