<svg xmlns="http://www.w3.org/2000/svg" viewBox="0 0 200 150"><path d="M131.8 74.1c0 17.2-13.9 31.1-31.1 31.1S69.6 91.3 69.6 74.1c0-17.2 13.9-32.2 31.1-32.2s31.1 15 31.1 32.2z" fill="none" stroke="#f7f7aa" stroke-width="6" stroke-miterlimit="10"/><path d="M57.6 95l3.3 5.6-16.7 9.6-3.3-5.6L57.6 95zM139 48l3.3 5.6L159 44l-3.3-5.6L139 48zm-78.1 0l-3.3 5.6L40.9 44l3.3-5.6L60.9 48zm81.3 47l-3.2 5.7 16.7 9.6 3.3-5.6-16.8-9.7zm-39-67.6h-6.5V8.1h6.5v19.3zm0 93.9h-6.5v19.3h6.5v-19.3z" fill="#f7f7aa"/></svg>