<svg xmlns="http://www.w3.org/2000/svg" viewBox="0 0 216.7 150"><path d="M148.8 108.1c-.4 2-2.3 3.3-4.2 2.9-2-.4-3.3-2.3-2.9-4.2.4-2 5-7.1 5-7.1s2.5 6.5 2.1 8.4zm-68.5.7c-.3 1.9-2.2 3.2-4.1 2.9-1.9-.3-3.2-2.2-2.9-4.1.3-1.9 4.8-6.9 4.8-6.9s2.5 6.2 2.2 8.1zm75.6 15.5c-.4 2-2.3 3.3-4.2 2.9-2-.4-3.3-2.3-2.9-4.2.4-2 5-7.1 5-7.1s2.5 6.4 2.1 8.4zm-67.8-.9c-.3 1.9-2.1 3.3-4 3-1.9-.3-3.3-2.1-3-4v-.3c.3-1.9 4.8-6.9 4.8-6.9s2.5 6.3 2.2 8.2zm56.1 11.4c-.4 2-2.3 3.3-4.2 2.9-2-.4-3.3-2.3-2.9-4.2.4-2 5-7.1 5-7.1s2.4 6.4 2.1 8.4zm-68 1c-.3 1.9-2.2 3.2-4.1 2.9s-3.2-2.2-2.9-4.1c.3-1.9 4.8-6.9 4.8-6.9s2.5 6.2 2.2 8.1z" fill="#6ec1f9"/><path d="M69 91.6h97.4c8.6 0 15.6-7 15.6-15.6s-7-15.6-15.6-15.6h-.5c3-14.9-6.7-29.4-21.6-32.4-1.8-.4-3.6-.5-5.4-.5-3.1 0-6.1.5-9 1.4-6.7-7.6-16.4-12-26.6-12C83.9 17 68.2 32.7 68.2 52c0 1 .1 2 .1 3C58.2 55 50 63.2 50 73.3c.1 10.1 8.9 18.3 19 18.3" fill="none" stroke="#fff" stroke-width="6" stroke-miterlimit="10"/><path fill="#f4f2ce" d="M99.5 99.9l25.1-.1-7.2 19.1 12.3.1-19.9 27.9 2.5-18-14 .6z"/></svg>